<?xml version="1.0" encoding="UTF-8"?>
<svg viewBox="0 0 37 42.25" version="1.1" xmlns="http://www.w3.org/2000/svg" xmlns:xlink="http://www.w3.org/1999/xlink">
    <title>Ti</title>
    <g id="页面-1" stroke="none" stroke-width="1" fill="none" fill-rule="evenodd">
        <g id="首页" transform="translate(-120.000000, -120.000000)">
            <g id="icon" transform="translate(120.000000, 120.000000)">
                <rect id="矩形" fill-opacity="0" fill="#FFFFFF" x="0" y="0" width="61" height="61"></rect>
                <g id="图形" transform="translate(2.500000, 2.500000)">
                    <rect id="矩形" fill-opacity="0" fill="#FFFFFF" x="0" y="0" width="56" height="56"></rect>
                    <g id="形状" transform="translate(0.000000, 1.353333)">
                        <path d="M25.9976039,1.14626111 C26.2469437,1.14626111 26.4883184,1.16616398 26.7204762,1.20446769 L26.7204762,1.14626111 L35.1095332,1.14626111 C35.7425958,1.14626111 36.1702748,1.65945969 36.064781,2.29252222 L34.3456614,12.6088722 C34.2401677,13.2419348 33.6414495,13.7551333 33.008387,13.7551333 L30.5888243,13.7551333 C29.3727904,13.7551333 28.3349977,14.6342985 28.1351138,15.8337921 L22.0825568,52.1548806 C21.9770631,52.7879431 21.3783449,53.3011417 20.7452824,53.3011417 L10.4289324,53.3011417 C9.79586984,53.3011417 9.36819082,52.7879431 9.47368455,52.1548806 L15.4906033,16.0476556 C15.7015907,14.7815305 14.8462327,13.7551333 13.5801076,13.7551333 L0.971235393,13.7551333 C0.338172862,13.7551333 -0.0895061546,13.2419348 0.0159875738,12.6088722 L1.73510721,2.29252222 C1.84060093,1.65945969 2.43931908,1.14626111 3.07238161,1.14626111 L25.9976039,1.14626111 Z M50.3393129,18.9133083 C51.605438,18.9133083 52.460796,19.9397055 52.2498086,21.2058306 L47.0924497,52.1548806 C46.986956,52.7879431 46.3882378,53.3011417 45.7551753,53.3011417 L35.4388253,53.3011417 C34.8057627,53.3011417 34.3780837,52.7879431 34.4835774,52.1548806 L39.6409363,21.2058306 C39.8519238,19.9397055 41.0493601,18.9133083 42.3154852,18.9133083 L50.3393129,18.9133083 Z" fill="#286BFF"></path>
                        <path d="M47.2037971,14.9013945 C51.3187036,14.9013945 55.2103715,11.5656037 55.8960808,7.45069723 C56.58179,3.33579077 53.8018764,0 49.6869699,0 C45.5720635,0 41.6803955,3.33579077 40.9946863,7.45069723 C40.3089771,11.5656037 43.0888907,14.9013945 47.2037971,14.9013945 Z" id="椭圆形" fill="#F02929"></path>
                    </g>
                </g>
            </g>
        </g>
    </g>
</svg>