<?xml version="1.0" encoding="UTF-8"?>
<svg xmlns="http://www.w3.org/2000/svg" viewBox="0 0 250 250" style="shape-rendering:geometricPrecision; text-rendering:geometricPrecision; image-rendering:optimizeQuality; fill-rule:evenodd; clip-rule:evenodd" xmlns:xlink="http://www.w3.org/1999/xlink">
    <defs>
        <style>.cls-1{fill:#CC00FF;}.cls-2{fill:#fff;}</style>
    </defs>
    <title>Trust Repository</title>
    <g>
        <path style="opacity:0.979" fill="#286afe" d="M 114.5,-0.5 C 117.833,-0.5 121.167,-0.5 124.5,-0.5C 156.032,10.4003 187.698,21.2337 219.5,32C 221.378,33.5429 222.878,35.3762 224,37.5C 224.958,49.5965 224.625,61.5965 223,73.5C 216.333,80.1667 209.667,80.1667 203,73.5C 201.568,65.9458 201.068,58.2792 201.5,50.5C 174.049,41.9054 146.716,32.9054 119.5,23.5C 92.284,32.9054 64.9506,41.9054 37.5,50.5C 37.3334,76.8354 37.5,103.169 38,129.5C 43.9359,153.443 56.4359,173.276 75.5,189C 88.7631,199.802 103.43,208.302 119.5,214.5C 149.762,203.07 173.595,183.737 191,156.5C 198.258,144.132 201.758,130.799 201.5,116.5C 185.096,116.955 168.763,116.455 152.5,115C 150.376,113.878 148.543,112.378 147,110.5C 145.804,104.581 145.138,98.5813 145,92.5C 140.447,80.4738 131.947,76.3071 119.5,80C 114.94,82.2271 111.774,85.7271 110,90.5C 108.804,96.4187 108.138,102.419 108,108.5C 106.75,111.171 104.917,113.337 102.5,115C 96.346,115.755 90.346,117.088 84.5,119C 77.3322,125.01 76.6655,131.677 82.5,139C 84.5,140 86.5,141 88.5,142C 106.132,143.381 123.799,143.881 141.5,143.5C 141.938,143.435 142.272,143.601 142.5,144C 137.196,151.46 137.196,158.96 142.5,166.5C 124.164,166.667 105.83,166.5 87.5,166C 61.8259,160.313 51.3259,144.479 56,118.5C 61.2664,105.404 70.7664,97.0704 84.5,93.5C 90.9962,64.4195 108.996,51.9195 138.5,56C 155.578,62.0854 165.911,74.0854 169.5,92C 185.167,92.3333 200.833,92.6667 216.5,93C 219.102,93.8834 221.269,95.3834 223,97.5C 224.627,110.071 224.96,122.738 224,135.5C 215.345,169.486 196.512,196.32 167.5,216C 153.714,224.892 139.38,232.725 124.5,239.5C 121.167,239.5 117.833,239.5 114.5,239.5C 85.7235,227.902 60.8902,210.569 40,187.5C 16.652,157.777 8.15199,124.11 14.5,86.5C 14.6667,70.1667 14.8333,53.8333 15,37.5C 16.1217,35.3762 17.6217,33.5429 19.5,32C 51.3017,21.2337 82.9683,10.4003 114.5,-0.5 Z"/>
    </g>
    <g>
        <path style="opacity:0.966" fill="#ef2929" d="M 142.5,166.5 C 137.196,158.96 137.196,151.46 142.5,144C 142.272,143.601 141.938,143.435 141.5,143.5C 146.88,136.76 153.88,134.26 162.5,136C 175.917,141.897 179.75,151.73 174,165.5C 164.885,175.88 154.718,177.047 143.5,169C 142.748,168.329 142.414,167.496 142.5,166.5 Z"/>
    </g>
</svg>
